<svg xmlns="http://www.w3.org/2000/svg" viewBox="0 0 64 64" role="img" aria-label="Solar2MQTT Favicon">
  <g fill="none" stroke="#58b8ff" stroke-width="4" stroke-linecap="round" stroke-linejoin="round">
    <circle cx="18" cy="16" r="5" fill="#58b8ff" stroke="none"/>
    <path d="M18 6v4M18 22v4M8 16h4M24 16h4M11 9l3 3M22 20l3 3M11 23l3-3M22 12l3-3"/>
    <path d="M27 27l18-7 7 17-18 7z"/>
    <path d="M31 26l7 18M38 23l7 18M29 33l21-8M32 40l21-8"/>
    <path d="M38 44l-6 9M38 44l8 9M27 53h24"/>
  </g>
</svg>
